<svg width="23" height="23" viewBox="0 0 23 23" fill="none" xmlns="http://www.w3.org/2000/svg">
<g clip-path="url(#clip0_9425_4962)">
<path d="M18.4375 3.23047H4.6875C4.32283 3.23047 3.97309 3.37533 3.71523 3.6332C3.45737 3.89106 3.3125 4.2408 3.3125 4.60547V9.41797C3.3125 13.9486 5.50563 16.6943 7.34555 18.1999C9.32727 19.8207 11.2987 20.3707 11.3846 20.3939C11.5028 20.4261 11.6274 20.4261 11.7455 20.3939C11.8315 20.3707 13.8003 19.8207 15.7846 18.1999C17.6194 16.6943 19.8125 13.9486 19.8125 9.41797V4.60547C19.8125 4.2408 19.6676 3.89106 19.4098 3.6332C19.1519 3.37533 18.8022 3.23047 18.4375 3.23047ZM15.4881 9.21688L10.6756 14.0294C10.6118 14.0933 10.536 14.144 10.4525 14.1786C10.369 14.2132 10.2796 14.231 10.1892 14.231C10.0989 14.231 10.0094 14.2132 9.92595 14.1786C9.84249 14.144 9.76666 14.0933 9.70281 14.0294L7.64031 11.9669C7.51131 11.8379 7.43884 11.6629 7.43884 11.4805C7.43884 11.298 7.51131 11.1231 7.64031 10.9941C7.76932 10.8651 7.94428 10.7926 8.12672 10.7926C8.30916 10.7926 8.48412 10.8651 8.61312 10.9941L10.1875 12.571L14.5136 8.24406C14.5775 8.18019 14.6533 8.12952 14.7368 8.09495C14.8202 8.06038 14.9097 8.04259 15 8.04259C15.0903 8.04259 15.1798 8.06038 15.2632 8.09495C15.3467 8.12952 15.4225 8.18019 15.4864 8.24406C15.5503 8.30794 15.601 8.38377 15.6355 8.46723C15.6701 8.55069 15.6879 8.64013 15.6879 8.73047C15.6879 8.8208 15.6701 8.91025 15.6355 8.99371C15.601 9.07717 15.5503 9.153 15.4864 9.21688H15.4881Z" fill="#60A880"/>
</g>
<defs>
<clipPath id="clip0_9425_4962">
<rect width="22" height="22" fill="white" transform="translate(0.9375 0.0546875)"/>
</clipPath>
</defs>
</svg>
